<svg width="1001" height="555" viewBox="0 0 1001 555" fill="none" xmlns="http://www.w3.org/2000/svg">
<path d="M0.881836 0.481812V554.317H134.115C134.115 369.705 134.115 185.093 134.115 0.481812H0.881836ZM155.75 0.481812V111.253H232.487C278.187 111.253 306.849 137.586 306.849 178.639C306.849 219.692 278.187 246.025 232.487 246.025H155.75V356.797H197.633L339.386 554.317H500.501L336.282 336.655C401.348 307.996 441.629 251.451 441.629 178.639C441.629 72.5206 356.421 0.481812 232.487 0.481812H155.75Z" fill="black"/>
<path d="M500.502 0.481812V554.317H631.406V208.073L848.343 533.483V314.274L639.151 0.481812H500.502ZM869.978 0.481812C869.978 185.093 869.978 369.705 869.978 554.317H1000.88V0.481812H869.978Z" fill="black"/>
</svg>
